<svg width="1440" height="49" viewBox="0 0 1440 49" fill="none" xmlns="http://www.w3.org/2000/svg">
<g clip-path="url(#clip0_2207_212)">
<mask id="path-1-inside-1_2207_212" fill="white">
<path d="M0 0H1440V49H0V0Z"/>
</mask>
<path d="M0 0H1440V49H0V0Z" fill="#1A1A1A"/>
<g clip-path="url(#clip1_2207_212)">
<g style="mix-blend-mode:color-dodge">
<path d="M-54.3115 133.971C43.982 76.6217 124.023 95.2515 206.901 168.665C266.269 221.258 315.645 282.154 383.024 325.359C432.483 357.091 458.517 362.702 492.352 312.175C545.963 232.127 599.929 150.306 678.029 91.2669C741.173 43.5137 805.152 32.7907 866.856 87.8455C918.235 133.7 954.803 207.468 1027.46 223.699C1091.9 238.094 1167.1 231.251 1232.06 222.405C1326.37 209.554 1414.96 203.755 1510.23 214.374" stroke="#666666" stroke-miterlimit="10"/>
<path d="M-54.3115 103.805C52.8267 44.6612 136.643 73.8054 221.565 154.729C281.664 211.995 331.207 281.946 405.198 322.543C460.123 352.689 479.398 337.021 505.599 285.346C547.277 203.171 599.991 120.119 677.195 66.5872C742.55 21.2541 808.656 19.8563 870.048 71.9487C923.596 117.407 962.605 189.256 1034.34 209.408C1188.21 252.635 1355.65 188.025 1510.23 182.663" stroke="#666666" stroke-miterlimit="10"/>
<path d="M-54.3115 73.9932C-1.01358 45.6 49.0927 28.7435 108.732 49.4178C158.067 66.5246 198.473 102.428 234.666 138.999C294.368 199.374 345.413 280.611 424.953 316.493C484.613 343.405 498.736 307.147 518.866 256.557C551.679 174.027 601.222 89.4728 678.634 41.1564C847.352 -64.1759 908.243 148.95 1042.48 195.16C1199.24 249.13 1356.93 181.036 1510.23 151.35" stroke="#666666" stroke-miterlimit="10"/>
<path d="M-54.3115 45.0159C1.28105 15.6005 52.5138 -0.797059 113.238 21.5461C164.179 40.2802 205.357 78.562 242.259 117.344C300.292 178.324 360.307 283.886 446.877 308.169C507.476 325.172 517.03 268.469 532.383 222.823C559.251 142.921 605.561 54.821 683.036 12.5546C843.868 -75.191 924.869 122.101 1046.3 177.865C1205.61 251.028 1359.87 176.008 1510.21 120.974" stroke="#666666" stroke-miterlimit="10"/>
<path d="M-54.3115 17.3737C1.82342 -13.1683 52.3887 -29.7536 114.177 -8.1197C165.41 9.82162 207.276 49.8558 243.698 88.8678C302.795 152.184 366.148 272.453 458.037 290.395C520.493 302.599 529.254 240.201 542.897 193.345C566.323 112.963 608.502 23.9869 689.461 -13.3978C850.523 -87.7708 937.385 101.635 1056.18 162.886C1118.03 194.763 1198.12 211.098 1267.02 200C1354.36 185.939 1434.23 134.18 1510.23 92.1848" stroke="#666666" stroke-miterlimit="10"/>
<path d="M-54.3115 -8.49522C5.47395 -43.0636 63.2568 -62.9868 129.446 -33.1124C179.115 -10.6857 218.52 30.5376 254.128 70.5509C307.489 130.508 374.742 256.828 464.504 266.299C532.07 273.434 540.602 199.645 555.079 149.826C577.462 72.8248 617.764 -9.72608 698.89 -39.4336C858.742 -97.9932 951.173 77.6023 1066.51 146.217C1124.79 180.89 1200.97 204.631 1269.15 196.14C1360.47 184.75 1439.51 118.659 1510.19 65.3563" stroke="#666666" stroke-miterlimit="10"/>
<path d="M-54.3115 -32.0902C2.13632 -68.0563 57.708 -93.0907 124.398 -66.1578C177.842 -44.5656 220.397 1.26815 257.111 44.0978C309.596 105.328 375.597 231.042 468.843 233.254C535.324 234.818 547.632 159.965 563.319 109.98C587.579 32.7489 625.941 -42.1665 711.03 -64.009C873.97 -105.858 964.441 54.6957 1081.03 131.718C1138.1 169.437 1214.22 200.542 1283.75 190.507C1374.68 177.364 1447.73 101.781 1510.21 41.1563" stroke="#666666" stroke-miterlimit="10"/>
<path d="M-54.3115 -52.9313C-2.49466 -90.5038 51.3248 -121.985 117.222 -99.9126C168.58 -82.7223 209.028 -40.6228 243.594 -0.692907C300.208 64.6886 357.157 180.994 454.616 188.421C528.712 194.054 547.966 122.038 569.285 65.0641C598.364 -12.6677 638.896 -78.4873 727.948 -90.5247C885.818 -111.867 976.79 23.8825 1086.47 109.333C1141.46 152.163 1215.91 193.178 1287.86 186.168C1383.29 176.864 1453.53 88.1167 1510.21 20.0857" stroke="#666666" stroke-miterlimit="10"/>
<path d="M-54.3115 -69.3705C-2.74498 -105.357 50.4278 -134.981 115.011 -113.953C165.305 -97.5759 205.336 -57.3331 239.484 -18.6133C294.493 43.7224 352.714 163.387 447.378 166.662C520.576 169.186 545.629 104.347 571.872 47.3524C605.519 -25.6855 651.057 -92.5482 737.419 -104.21C889.761 -124.78 984.925 2.04012 1093.04 83.1516C1146.09 122.935 1220.92 163.408 1289.05 162.073C1384.29 160.195 1454.84 69.5913 1510.21 3.45875" stroke="#666666" stroke-miterlimit="10"/>
<path d="M-54.3115 -80.6152C-3.55854 -115.35 48.8424 -144.161 112.153 -125.009C161.071 -110.218 200.517 -72.5416 234.123 -35.6575C288.256 23.7783 346.226 142.191 437.823 142.754C509.645 143.192 540.226 86.0305 571.579 30.3498C609.879 -37.6603 660.152 -102.917 743.447 -114.349C890.282 -134.481 989.473 -20.7412 1097.65 54.967C1150.18 91.7259 1224.19 132.741 1289.19 138.54C1383.96 146.989 1455.66 55.4886 1510.19 -8.26571" stroke="#666666" stroke-miterlimit="10"/>
<path d="M-54.3115 -87.5831C-5.62369 -120.858 46.4226 -149.627 107.23 -134.189C159.068 -121.046 200.246 -81.8461 235.542 -43.8981C289.194 13.7854 342.993 120.933 432.629 116.948C500.446 113.944 535.012 62.4564 570.432 11.7826C613.926 -50.4696 666.431 -108.841 746.076 -120.149C890.7 -140.698 992.018 -42.3752 1104.54 27.7629C1156.52 60.1824 1222.48 98.6311 1282.37 114.132C1379.46 139.249 1453.38 48.2702 1510.21 -15.9847" stroke="#666666" stroke-miterlimit="10"/>
<path d="M-54.3115 -91.1714C-6.95875 -123.946 43.982 -153.34 103.788 -141.178C153.582 -131.039 194.051 -96.1574 228.741 -61.1301C283.145 -6.22133 333.793 92.3934 420.635 88.5339C486.511 85.6132 526.125 42.262 566.427 -4.44806C614.718 -60.3999 670.457 -113.556 747.035 -124.697C885.547 -144.849 991.684 -66.2413 1105.52 -3.69703C1162.01 27.3456 1221.42 65.2936 1280.72 90.4115C1376.2 130.863 1451.26 43.3259 1510.19 -20.5327" stroke="#666666" stroke-miterlimit="10"/>
<path d="M-54.3115 -92.277C45.317 -162.916 131.491 -162.561 221.962 -78.8002C277.513 -27.3754 324.719 60.8918 408.515 57.8876C472.243 55.5928 516.55 20.4612 561.462 -20.783C614.385 -69.3706 672.689 -116.373 746.222 -127.304C878.204 -146.935 989.953 -90.0865 1104.81 -36.1583C1168.04 -6.47164 1219.19 30.767 1278.07 66.8792C1371.07 123.895 1446.98 42.4915 1510.23 -22.7023" stroke="#666666" stroke-miterlimit="10"/>
<path d="M-54.3115 -91.7972C38.4123 -159.724 123.752 -172.909 215.578 -97.3048C272.59 -50.3653 316.5 26.532 396.896 24.9465C530.756 22.3179 613.196 -108.8 744.031 -128.577C869.36 -147.52 987.095 -113.932 1102.37 -69.4332C1172.83 -42.2291 1217.2 -3.69702 1274.36 43.3051C1364.02 117.031 1440.22 44.9115 1510.21 -23.4533" stroke="#666666" stroke-miterlimit="10"/>
<path d="M-54.3115 -90.629C30.4854 -155.259 115.157 -182.63 207.777 -118.605C265.038 -79.0297 307.03 -12.8972 381.021 -10.352C514.068 -5.74151 613.071 -109.968 740.756 -129.891C857.261 -148.062 981.775 -137.986 1094.17 -104.273C1174.19 -80.2606 1215.06 -36.5964 1271.46 21.692C1292.53 43.472 1316.23 66.1489 1347.87 69.5703C1410.83 76.3505 1469.72 13.9522 1510.21 -23.516" stroke="#666666" stroke-miterlimit="10"/>
<path d="M-54.3115 -89.6692C24.5819 -152.214 108.857 -191.956 203.542 -139.592C262.118 -107.193 302.858 -52.2011 372.719 -48.133C502.699 -40.5601 612.194 -110.218 737.231 -129.641C849.396 -147.061 976.498 -161.581 1088.52 -137.548C1174.69 -119.064 1213.45 -67.5138 1265.68 -1.63159C1285.69 23.6114 1308.34 52.6514 1341.41 60.5789C1405.28 75.8916 1468.3 12.9509 1510.19 -23.7453" stroke="#666666" stroke-miterlimit="10"/>
<path d="M-54.3115 -89.8362C22.6837 -153.257 108.252 -202.345 207.38 -160.037C261.429 -136.963 301.648 -94.6761 361.788 -88.7931C491.038 -76.1298 608.565 -110.49 734.769 -129.015C801.272 -138.778 866.794 -148.458 932.733 -161.747C983.987 -172.074 1033.8 -177.436 1085.91 -169.967C1175.94 -157.074 1213.97 -92.736 1260.66 -22.6396C1279.35 5.41977 1301.81 40.2593 1335.77 51.4205C1400.86 72.8249 1465.78 11.9078 1510.21 -25.0805" stroke="#666666" stroke-miterlimit="10"/>
<path d="M-54.3115 -92.0058C19.8467 -155.051 105.457 -213.464 206.817 -186.448C260.553 -172.116 303.922 -138.778 359.764 -131.727C487.158 -115.663 605.185 -112.012 732.475 -129.745C799.874 -139.133 863.06 -152.965 927.351 -175.245C976.853 -192.394 1024.35 -206.455 1077.42 -202.7C1171.92 -196.024 1210.3 -120.023 1252.96 -46.2137C1271.13 -14.7746 1293.07 25.6768 1328.29 40.9686C1394.62 69.779 1462.98 9.23752 1510.25 -28.2515" stroke="#666666" stroke-miterlimit="10"/>
<path d="M-54.3115 -97.0752C18.8037 -160.704 104.08 -225.689 206.65 -215.843C261.721 -210.565 312.12 -184.529 366.794 -176.476C491.768 -158.055 601.702 -116.018 730.076 -131.685C797.997 -139.988 859.034 -157.721 920.238 -188.054C966.339 -210.898 1010.27 -234.013 1063.09 -234.681C1165.76 -235.933 1204.54 -146.247 1245.89 -67.1383C1263.74 -32.9663 1285.21 11.4906 1321.59 29.8075C1389.09 63.8125 1460.27 3.91771 1510.21 -34.1972" stroke="#666666" stroke-miterlimit="10"/>
<path d="M-54.3115 -105.942C20.3056 -171.636 105.812 -240.856 209.383 -247.699C265.226 -251.392 324.01 -234.785 378.351 -223.52C500.571 -198.193 602.327 -121.15 732.12 -135.169C798.852 -142.367 857.782 -164.084 913.729 -200.718C958.871 -230.279 1000.24 -261.969 1056.29 -265.244C1161.19 -271.356 1199.62 -167.192 1237.9 -88.1464C1256.09 -50.6156 1276.97 -5.21988 1314.48 16.9982C1381.83 56.8863 1459.5 -6.13785 1510.21 -43.6895" stroke="#666666" stroke-miterlimit="10"/>
<path d="M-54.3115 -119.544C73.3741 -231.698 207.944 -318.171 381.772 -276.155C505.515 -246.239 600.826 -129.891 735.082 -140.865C803.107 -146.435 860.41 -173.743 912.165 -216.99C952.696 -250.849 988.805 -287.983 1044.11 -293.971C1149.58 -305.382 1188.23 -198.694 1224.38 -119.752C1244.11 -76.6722 1265.47 -22.7857 1308.3 2.87459C1377.35 44.2439 1457.54 -19.3226 1510.19 -57.6252" stroke="#666666" stroke-miterlimit="10"/>
<path d="M-54.3115 -138.027C68.5554 -243.005 226.613 -359.123 398.502 -310.973C519.158 -277.177 610.317 -148.479 742.926 -155.28C809.24 -158.681 865.584 -190.454 912.394 -235.474C949.525 -271.169 982.714 -311.432 1037.33 -317.482C1138.5 -328.727 1179.68 -223.416 1215.33 -148.542C1236.67 -103.751 1259.03 -48.9259 1302.92 -21.3672C1373.2 22.756 1454.36 -37.4935 1510.19 -76.3803" stroke="#666666" stroke-miterlimit="10"/>
</g>
</g>
</g>
<path d="M1440 48H0V50H1440V48Z" fill="#262626" mask="url(#path-1-inside-1_2207_212)"/>
<defs>
<clipPath id="clip0_2207_212">
<path d="M0 0H1440V49H0V0Z" fill="white"/>
</clipPath>
<clipPath id="clip1_2207_212">
<rect width="1566" height="1046" fill="white" transform="translate(-55 -391)"/>
</clipPath>
</defs>
</svg>
