<svg width="135" height="43" viewBox="0 0 135 43" fill="none" xmlns="http://www.w3.org/2000/svg">
<path d="M52.4648 3.61816L54.274 5.14342V39.8006L52.4648 38.5296V3.61816Z" fill="black"/>
<path d="M48.8467 0.904541L51.1081 2.60453V37.5393L48.8467 36.2643V0.904541Z" fill="black"/>
<path d="M36.6348 6.2754L47.4895 0V35.2779L45.0109 33.7515V18.487L36.6348 12.2116V6.2754Z" fill="black"/>
<path d="M37.0869 14.4729L43.4188 18.8788V22.1617L37.0869 17.4966V14.4729Z" fill="black"/>
<path d="M37.0869 19.9004L42.9666 24.5475V27.5892L37.0869 23.1111V19.9004Z" fill="black"/>
<path d="M23.9707 19.4974L34.8254 13.1162V26.9847L30.4835 30.3029L23.9707 25.283V19.4974Z" fill="black"/>
<path d="M21.0082 25.78L30.2046 32.3724L35.1825 28.6536L55.1783 42.5144H50.6223L35.52 31.8653L21.0082 42.5144H16.621L27.7579 34.0627L21.0082 28.6536L4.21852 40.9931H0L21.0082 25.78Z" fill="black"/>
<rect x="18.9961" y="31.6597" width="1.80912" height="1.80912" fill="black"/>
<rect x="34.373" y="35.7302" width="1.80912" height="2.2614" fill="black"/>
<rect x="21.2568" y="31.6597" width="1.80912" height="1.80912" fill="black"/>
<rect x="36.6348" y="35.7302" width="1.80912" height="2.2614" fill="black"/>
<rect x="18.9961" y="33.9211" width="1.80912" height="1.35684" fill="black"/>
<rect x="34.373" y="38.4438" width="1.80912" height="1.80912" fill="black"/>
<rect x="21.2568" y="33.9211" width="1.80912" height="1.35684" fill="black"/>
<rect x="36.6348" y="38.4438" width="1.80912" height="1.80912" fill="black"/>
<path d="M61.6581 27.2621H62.7435V32.3276H61.6581V30.1567H59.8634V32.3276H58.7779V27.2621H59.8634V29.0712H61.6581V27.2621ZM65.9636 32.4217C65.621 32.4217 65.299 32.3542 64.9975 32.2191C64.696 32.0816 64.4306 31.8922 64.2015 31.651C63.9723 31.4098 63.7926 31.1312 63.6623 30.8152C63.5321 30.4968 63.467 30.1567 63.467 29.7949C63.467 29.433 63.5321 29.0941 63.6623 28.7781C63.7926 28.4597 63.9723 28.1799 64.2015 27.9387C64.4306 27.6975 64.696 27.5093 64.9975 27.3743C65.299 27.2368 65.621 27.168 65.9636 27.168C66.3085 27.168 66.6317 27.2368 66.9332 27.3743C67.2348 27.5093 67.5001 27.6975 67.7293 27.9387C67.9584 28.1799 68.1369 28.4597 68.2648 28.7781C68.395 29.0941 68.4601 29.433 68.4601 29.7949C68.4601 30.1567 68.395 30.4968 68.2648 30.8152C68.1369 31.1312 67.9584 31.4098 67.7293 31.651C67.5001 31.8922 67.2348 32.0816 66.9332 32.2191C66.6317 32.3542 66.3085 32.4217 65.9636 32.4217ZM65.9636 31.3362C66.1565 31.3362 66.3374 31.2964 66.5063 31.2168C66.6776 31.1348 66.8283 31.0239 66.9586 30.884C67.0888 30.7416 67.1901 30.5776 67.2625 30.3919C67.3373 30.2061 67.3747 30.0071 67.3747 29.7949C67.3747 29.5826 67.3373 29.3836 67.2625 29.1979C67.1901 29.0121 67.0888 28.8493 66.9586 28.7094C66.8283 28.5671 66.6776 28.4561 66.5063 28.3765C66.3374 28.2945 66.1565 28.2535 65.9636 28.2535C65.7706 28.2535 65.5885 28.2945 65.4172 28.3765C65.2483 28.4561 65.0988 28.5671 64.9685 28.7094C64.8383 28.8493 64.7358 29.0121 64.661 29.1979C64.5886 29.3836 64.5524 29.5826 64.5524 29.7949C64.5524 30.0071 64.5886 30.2061 64.661 30.3919C64.7358 30.5776 64.8383 30.7416 64.9685 30.884C65.0988 31.0239 65.2483 31.1348 65.4172 31.2168C65.5885 31.2964 65.7706 31.3362 65.9636 31.3362ZM68.8553 32.3276L69.8395 27.2621H70.7658L71.9019 30.2508L73.038 27.2621H73.9643L74.9485 32.3276H73.8413L73.313 29.5922L72.2782 32.3276H71.5256L70.4908 29.5922L69.9625 32.3276H68.8553ZM75.6678 32.3276V27.2621H78.8953V28.3476H76.7533V29.0712H78.4032V30.1567H76.7533V31.2422H78.8953V32.3276H75.6678ZM81.5414 32.4217C81.2568 32.4217 80.9842 32.3771 80.7237 32.2878C80.4632 32.1962 80.2352 32.0659 80.0398 31.8971C79.8444 31.7258 79.7033 31.522 79.6165 31.2856L80.6368 30.9093C80.661 30.9792 80.714 31.0468 80.796 31.1119C80.8805 31.177 80.9866 31.2313 81.1145 31.2747C81.2423 31.3157 81.3846 31.3362 81.5414 31.3362C81.6861 31.3362 81.8224 31.3157 81.9503 31.2747C82.0781 31.2313 82.1818 31.1722 82.2614 31.0974C82.341 31.0227 82.3808 30.9358 82.3808 30.8369C82.3808 30.7356 82.3386 30.6524 82.2542 30.5873C82.1722 30.5197 82.0661 30.4667 81.9358 30.4281C81.808 30.387 81.6765 30.3569 81.5414 30.3376C81.1748 30.2845 80.8455 30.1977 80.5536 30.0771C80.2642 29.9541 80.035 29.7852 79.8662 29.5705C79.6997 29.3558 79.6165 29.0833 79.6165 28.7528C79.6165 28.4368 79.7057 28.1606 79.8842 27.9242C80.0628 27.6854 80.2979 27.4997 80.5898 27.367C80.8841 27.2344 81.2013 27.168 81.5414 27.168C81.826 27.168 82.0986 27.2138 82.3591 27.3055C82.6221 27.3948 82.8512 27.525 83.0466 27.6963C83.242 27.8675 83.3819 28.0726 83.4663 28.3114L82.446 28.6804C82.4218 28.6105 82.3676 28.5442 82.2831 28.4814C82.2011 28.4163 82.0962 28.3632 81.9684 28.3222C81.8405 28.2812 81.6982 28.2607 81.5414 28.2607C81.4015 28.2583 81.2676 28.2788 81.1398 28.3222C81.0119 28.3657 80.907 28.4248 80.825 28.4995C80.743 28.5743 80.702 28.6587 80.702 28.7528C80.702 28.8831 80.7406 28.9808 80.8178 29.0459C80.8949 29.1086 80.9963 29.1532 81.1217 29.1798C81.2495 29.2063 81.3894 29.2304 81.5414 29.2521C81.8888 29.3028 82.2084 29.3932 82.5002 29.5235C82.7921 29.6538 83.0261 29.8274 83.2022 30.0445C83.3783 30.2616 83.4663 30.5257 83.4663 30.8369C83.4663 31.1529 83.3771 31.4303 83.1986 31.6691C83.0225 31.9055 82.7885 32.09 82.4966 32.2227C82.2048 32.3554 81.8863 32.4217 81.5414 32.4217ZM87.4614 32.4217C87.1598 32.4217 86.8873 32.3481 86.6436 32.201C86.4024 32.0514 86.2107 31.8549 86.0683 31.6112C85.926 31.3676 85.8549 31.1023 85.8549 30.8152C85.8549 30.6632 85.8681 30.5294 85.8947 30.4136C85.9236 30.2954 85.9694 30.1832 86.0322 30.0771C86.0973 29.9685 86.1829 29.854 86.2891 29.7334C86.3976 29.6127 86.5327 29.4716 86.6943 29.31C86.6123 29.2256 86.5411 29.1472 86.4808 29.0748C86.4229 29.0001 86.3747 28.9253 86.3361 28.8505C86.2999 28.7733 86.2734 28.6937 86.2565 28.6117C86.2396 28.5273 86.2312 28.4344 86.2312 28.3331C86.2312 28.0943 86.2879 27.882 86.4012 27.6963C86.5146 27.5105 86.6641 27.3646 86.8499 27.2585C87.038 27.1499 87.2419 27.0957 87.4614 27.0957C87.6881 27.0957 87.8944 27.1511 88.0801 27.2621C88.2682 27.3706 88.4178 27.519 88.5288 27.7071C88.6421 27.8929 88.6988 28.1015 88.6988 28.3331C88.6988 28.4368 88.6892 28.5309 88.6699 28.6153C88.653 28.6997 88.6252 28.7793 88.5866 28.8541C88.548 28.9289 88.4986 29.0037 88.4383 29.0785C88.3804 29.1508 88.3105 29.228 88.2284 29.31L88.9666 30.0481L89.9435 29.0712V30.6054L89.7336 30.8152L90.479 31.5606L89.7119 32.3276L88.9666 31.5823C88.8025 31.7463 88.659 31.8826 88.536 31.9911C88.413 32.0997 88.2972 32.1853 88.1886 32.248C88.0825 32.3108 87.9715 32.3554 87.8558 32.3819C87.7424 32.4084 87.6109 32.4217 87.4614 32.4217ZM87.4614 31.3362C87.5265 31.3362 87.5832 31.3278 87.6314 31.3109C87.6821 31.2916 87.7327 31.2615 87.7834 31.2205C87.834 31.1794 87.8919 31.1264 87.9571 31.0613C88.0222 30.9937 88.103 30.9117 88.1995 30.8152L87.4614 30.0771C87.3601 30.1784 87.2756 30.2628 87.2081 30.3304C87.1406 30.3955 87.0875 30.4522 87.0489 30.5004C87.0103 30.5487 86.9826 30.5969 86.9657 30.6452C86.9488 30.6934 86.9403 30.7501 86.9403 30.8152C86.9403 30.9189 86.9657 31.0106 87.0163 31.0902C87.067 31.1674 87.1321 31.2277 87.2117 31.2711C87.2913 31.3145 87.3745 31.3362 87.4614 31.3362ZM87.4614 28.7094C87.541 28.6322 87.6013 28.5743 87.6423 28.5357C87.6857 28.4971 87.7146 28.4633 87.7291 28.4344C87.7436 28.403 87.7508 28.362 87.7508 28.3114C87.7508 28.2125 87.7183 28.1401 87.6531 28.0943C87.588 28.046 87.5241 28.0219 87.4614 28.0219C87.389 28.0219 87.3227 28.0497 87.2624 28.1051C87.2021 28.1582 87.1719 28.227 87.1719 28.3114C87.1719 28.362 87.1816 28.4043 87.2009 28.438C87.2202 28.4718 87.2503 28.5092 87.2913 28.5502C87.3347 28.5888 87.3914 28.6418 87.4614 28.7094ZM92.9393 32.3276V27.2621H94.8497C95.1271 27.2621 95.378 27.3332 95.6023 27.4756C95.8291 27.6155 96.0088 27.8036 96.1414 28.04C96.2741 28.274 96.3404 28.5309 96.3404 28.8107C96.3404 29.0953 96.2717 29.3546 96.1342 29.5886C95.9991 29.8226 95.8182 30.0095 95.5915 30.1495C95.3647 30.2894 95.1175 30.3593 94.8497 30.3593H94.0248V32.3276H92.9393ZM94.0248 29.2738H94.7267C94.8232 29.2738 94.9112 29.2497 94.9908 29.2015C95.0704 29.1508 95.1344 29.0845 95.1826 29.0025C95.2308 28.9205 95.255 28.83 95.255 28.7311C95.255 28.6322 95.2308 28.5417 95.1826 28.4597C95.1344 28.3777 95.0704 28.3126 94.9908 28.2643C94.9112 28.2137 94.8232 28.1884 94.7267 28.1884H94.0248V29.2738ZM96.9603 32.3276V27.2621H99.0227C99.3001 27.2621 99.551 27.332 99.7753 27.4719C99.9997 27.6119 100.177 27.8 100.307 28.0364C100.44 28.2704 100.506 28.5285 100.506 28.8107C100.506 29.0278 100.47 29.2304 100.398 29.4186C100.325 29.6043 100.222 29.7695 100.087 29.9143C99.9538 30.0566 99.797 30.1712 99.6161 30.258L100.817 32.3276H99.5655L98.4221 30.3593H98.0458V32.3276H96.9603ZM98.0458 29.2738H98.8925C98.989 29.2738 99.077 29.2497 99.1566 29.2015C99.2362 29.1508 99.3001 29.0845 99.3484 29.0025C99.3966 28.9205 99.4208 28.83 99.4208 28.7311C99.4208 28.6322 99.3966 28.5417 99.3484 28.4597C99.3001 28.3777 99.2362 28.3126 99.1566 28.2643C99.077 28.2137 98.989 28.1884 98.8925 28.1884H98.0458V29.2738ZM103.602 32.4217C103.259 32.4217 102.937 32.3542 102.636 32.2191C102.334 32.0816 102.069 31.8922 101.84 31.651C101.611 31.4098 101.431 31.1312 101.301 30.8152C101.17 30.4968 101.105 30.1567 101.105 29.7949C101.105 29.433 101.17 29.0941 101.301 28.7781C101.431 28.4597 101.611 28.1799 101.84 27.9387C102.069 27.6975 102.334 27.5093 102.636 27.3743C102.937 27.2368 103.259 27.168 103.602 27.168C103.947 27.168 104.27 27.2368 104.571 27.3743C104.873 27.5093 105.138 27.6975 105.368 27.9387C105.597 28.1799 105.775 28.4597 105.903 28.7781C106.033 29.0941 106.098 29.433 106.098 29.7949C106.098 30.1567 106.033 30.4968 105.903 30.8152C105.775 31.1312 105.597 31.4098 105.368 31.651C105.138 31.8922 104.873 32.0816 104.571 32.2191C104.27 32.3542 103.947 32.4217 103.602 32.4217ZM103.602 31.3362C103.795 31.3362 103.976 31.2964 104.145 31.2168C104.316 31.1348 104.467 31.0239 104.597 30.884C104.727 30.7416 104.828 30.5776 104.901 30.3919C104.976 30.2061 105.013 30.0071 105.013 29.7949C105.013 29.5826 104.976 29.3836 104.901 29.1979C104.828 29.0121 104.727 28.8493 104.597 28.7094C104.467 28.5671 104.316 28.4561 104.145 28.3765C103.976 28.2945 103.795 28.2535 103.602 28.2535C103.409 28.2535 103.227 28.2945 103.055 28.3765C102.887 28.4561 102.737 28.5671 102.607 28.7094C102.477 28.8493 102.374 29.0121 102.299 29.1979C102.227 29.3836 102.191 29.5826 102.191 29.7949C102.191 30.0071 102.227 30.2061 102.299 30.3919C102.374 30.5776 102.477 30.7416 102.607 30.884C102.737 31.0239 102.887 31.1348 103.055 31.2168C103.227 31.2964 103.409 31.3362 103.602 31.3362ZM106.713 32.3276V27.2621H108.623C108.9 27.2621 109.151 27.3332 109.376 27.4756C109.602 27.6155 109.782 27.8036 109.915 28.04C110.047 28.274 110.114 28.5309 110.114 28.8107C110.114 29.0953 110.045 29.3546 109.908 29.5886C109.772 29.8226 109.592 30.0095 109.365 30.1495C109.138 30.2894 108.891 30.3593 108.623 30.3593H107.798V32.3276H106.713ZM107.798 29.2738H108.5C108.597 29.2738 108.685 29.2497 108.764 29.2015C108.844 29.1508 108.908 29.0845 108.956 29.0025C109.004 28.9205 109.028 28.83 109.028 28.7311C109.028 28.6322 109.004 28.5417 108.956 28.4597C108.908 28.3777 108.844 28.3126 108.764 28.2643C108.685 28.2137 108.597 28.1884 108.5 28.1884H107.798V29.2738ZM110.734 32.3276V27.2621H113.961V28.3476H111.819V29.0712H113.469V30.1567H111.819V31.2422H113.961V32.3276H110.734ZM114.755 32.3276V27.2621H116.817C117.095 27.2621 117.345 27.332 117.57 27.4719C117.794 27.6119 117.971 27.8 118.102 28.0364C118.234 28.2704 118.301 28.5285 118.301 28.8107C118.301 29.0278 118.264 29.2304 118.192 29.4186C118.12 29.6043 118.016 29.7695 117.881 29.9143C117.748 30.0566 117.591 30.1712 117.411 30.258L118.612 32.3276H117.36L116.217 30.3593H115.84V32.3276H114.755ZM115.84 29.2738H116.687C116.783 29.2738 116.871 29.2497 116.951 29.2015C117.031 29.1508 117.095 29.0845 117.143 29.0025C117.191 28.9205 117.215 28.83 117.215 28.7311C117.215 28.6322 117.191 28.5417 117.143 28.4597C117.095 28.3777 117.031 28.3126 116.951 28.2643C116.871 28.2137 116.783 28.1884 116.687 28.1884H115.84V29.2738ZM122.957 27.2621V28.3476H121.51V32.3276H120.425V28.3476H118.977V27.2621H122.957ZM123.789 32.3276V27.2621H124.874V32.3276H123.789ZM125.85 32.3276V27.2621H129.077V28.3476H126.935V29.0712H128.585V30.1567H126.935V31.2422H129.077V32.3276H125.85ZM131.723 32.4217C131.439 32.4217 131.166 32.3771 130.906 32.2878C130.645 32.1962 130.417 32.0659 130.222 31.8971C130.026 31.7258 129.885 31.522 129.798 31.2856L130.819 30.9093C130.843 30.9792 130.896 31.0468 130.978 31.1119C131.062 31.177 131.169 31.2313 131.296 31.2747C131.424 31.3157 131.567 31.3362 131.723 31.3362C131.868 31.3362 132.004 31.3157 132.132 31.2747C132.26 31.2313 132.364 31.1722 132.443 31.0974C132.523 31.0227 132.563 30.9358 132.563 30.8369C132.563 30.7356 132.521 30.6524 132.436 30.5873C132.354 30.5197 132.248 30.4667 132.118 30.4281C131.99 30.387 131.858 30.3569 131.723 30.3376C131.357 30.2845 131.027 30.1977 130.736 30.0771C130.446 29.9541 130.217 29.7852 130.048 29.5705C129.882 29.3558 129.798 29.0833 129.798 28.7528C129.798 28.4368 129.888 28.1606 130.066 27.9242C130.245 27.6854 130.48 27.4997 130.772 27.367C131.066 27.2344 131.383 27.168 131.723 27.168C132.008 27.168 132.281 27.2138 132.541 27.3055C132.804 27.3948 133.033 27.525 133.229 27.6963C133.424 27.8675 133.564 28.0726 133.648 28.3114L132.628 28.6804C132.604 28.6105 132.55 28.5442 132.465 28.4814C132.383 28.4163 132.278 28.3632 132.15 28.3222C132.022 28.2812 131.88 28.2607 131.723 28.2607C131.583 28.2583 131.45 28.2788 131.322 28.3222C131.194 28.3657 131.089 28.4248 131.007 28.4995C130.925 28.5743 130.884 28.6587 130.884 28.7528C130.884 28.8831 130.923 28.9808 131 29.0459C131.077 29.1086 131.178 29.1532 131.304 29.1798C131.432 29.2063 131.571 29.2304 131.723 29.2521C132.071 29.3028 132.39 29.3932 132.682 29.5235C132.974 29.6538 133.208 29.8274 133.384 30.0445C133.56 30.2616 133.648 30.5257 133.648 30.8369C133.648 31.1529 133.559 31.4303 133.381 31.6691C133.204 31.9055 132.97 32.09 132.679 32.2227C132.387 32.3554 132.068 32.4217 131.723 32.4217Z" fill="black"/>
<path d="M59.8814 25.5933V12.9294H64.5941C65.2756 12.9294 65.8937 13.0711 66.4485 13.3545C67.0033 13.6319 67.4405 14.0299 67.7601 14.5486C68.0857 15.0672 68.2486 15.6762 68.2486 16.3758C68.2486 16.6592 68.2094 16.9517 68.131 17.2532C68.0586 17.5547 67.932 17.8321 67.7511 18.0854C67.5762 18.3387 67.335 18.5316 67.0274 18.6643C67.4254 18.7608 67.745 18.9417 67.9862 19.2071C68.2275 19.4664 68.4114 19.7679 68.538 20.1116C68.6647 20.4493 68.7491 20.7961 68.7913 21.1519C68.8335 21.5077 68.8546 21.8303 68.8546 22.1197C68.8546 22.771 68.6858 23.359 68.3481 23.8836C68.0104 24.4083 67.5551 24.8244 66.9822 25.1319C66.4153 25.4395 65.7882 25.5933 65.1007 25.5933H59.8814ZM62.378 23.4675H64.8384C65.17 23.4675 65.4716 23.3891 65.7429 23.2324C66.0143 23.0695 66.2314 22.8494 66.3942 22.572C66.557 22.2886 66.6384 21.969 66.6384 21.6132C66.6384 21.3117 66.557 21.0252 66.3942 20.7539C66.2314 20.4825 66.0143 20.2624 65.7429 20.0935C65.4716 19.9186 65.17 19.8312 64.8384 19.8312H62.378V23.4675ZM62.378 17.7507H64.3047C64.7027 17.7507 65.0434 17.6211 65.3268 17.3617C65.6103 17.1024 65.752 16.7678 65.752 16.3577C65.752 15.9356 65.6103 15.6159 65.3268 15.3988C65.0434 15.1757 64.7027 15.0642 64.3047 15.0642H62.378V17.7507ZM70.252 25.5933V12.9294H72.7486V23.0967H77.8504V25.5933H70.252ZM79.8453 25.5933V12.9294H87.8598V15.426H82.3419V17.5608H86.6476V20.0573H82.3419V23.0967H87.8598V25.5933H79.8453ZM94.4492 25.8284C93.7376 25.8284 93.0562 25.7169 92.4049 25.4938C91.7596 25.2706 91.1928 24.948 90.7043 24.5259C90.2219 24.1037 89.8751 23.6032 89.6641 23.0243L92.0069 22.1559C92.0793 22.361 92.23 22.5539 92.4592 22.7348C92.6883 22.9097 92.9748 23.0545 93.3185 23.169C93.6622 23.2776 94.0391 23.3319 94.4492 23.3319C94.8412 23.3319 95.209 23.2746 95.5528 23.16C95.9025 23.0394 96.1829 22.8735 96.394 22.6625C96.6111 22.4514 96.7197 22.2042 96.7197 21.9207C96.7197 21.6373 96.6081 21.4021 96.385 21.2152C96.1618 21.0282 95.8754 20.8805 95.5256 20.7719C95.1759 20.6574 94.8171 20.5699 94.4492 20.5096C93.5386 20.377 92.7215 20.1629 91.9978 19.8674C91.2802 19.5659 90.7134 19.1528 90.2973 18.6281C89.8812 18.0975 89.6731 17.4251 89.6731 16.611C89.6731 15.827 89.8932 15.1426 90.3334 14.5576C90.7797 13.9727 91.3646 13.5174 92.0883 13.1917C92.818 12.8661 93.6049 12.7033 94.4492 12.7033C95.1487 12.7033 95.8241 12.8148 96.4754 13.0379C97.1267 13.2611 97.6936 13.5837 98.176 14.0058C98.6645 14.428 99.0142 14.9345 99.2253 15.5255L96.8825 16.3758C96.8101 16.1707 96.6593 15.9808 96.4302 15.8059C96.201 15.631 95.9146 15.4893 95.5709 15.3808C95.2271 15.2722 94.8532 15.2179 94.4492 15.2179C94.0633 15.2119 93.6954 15.2692 93.3456 15.3898C93.0019 15.5104 92.7185 15.6762 92.4953 15.8873C92.2783 16.0984 92.1697 16.3396 92.1697 16.611C92.1697 16.9668 92.2722 17.2351 92.4773 17.416C92.6883 17.5969 92.9657 17.7266 93.3095 17.805C93.6532 17.8834 94.0331 17.9527 94.4492 18.013C95.3055 18.1397 96.0955 18.3658 96.8192 18.6915C97.5428 19.0111 98.1217 19.4392 98.5559 19.9759C98.9961 20.5066 99.2162 21.1549 99.2162 21.9207C99.2162 22.7047 98.9961 23.3891 98.5559 23.9741C98.1157 24.559 97.5338 25.0143 96.8101 25.34C96.0865 25.6656 95.2995 25.8284 94.4492 25.8284ZM105.827 25.8284C105.115 25.8284 104.434 25.7169 103.783 25.4938C103.137 25.2706 102.57 24.948 102.082 24.5259C101.6 24.1037 101.253 23.6032 101.042 23.0243L103.385 22.1559C103.457 22.361 103.608 22.5539 103.837 22.7348C104.066 22.9097 104.352 23.0545 104.696 23.169C105.04 23.2776 105.417 23.3319 105.827 23.3319C106.219 23.3319 106.587 23.2746 106.93 23.16C107.28 23.0394 107.561 22.8735 107.772 22.6625C107.989 22.4514 108.097 22.2042 108.097 21.9207C108.097 21.6373 107.986 21.4021 107.763 21.2152C107.54 21.0282 107.253 20.8805 106.903 20.7719C106.554 20.6574 106.195 20.5699 105.827 20.5096C104.916 20.377 104.099 20.1629 103.376 19.8674C102.658 19.5659 102.091 19.1528 101.675 18.6281C101.259 18.0975 101.051 17.4251 101.051 16.611C101.051 15.827 101.271 15.1426 101.711 14.5576C102.157 13.9727 102.742 13.5174 103.466 13.1917C104.196 12.8661 104.983 12.7033 105.827 12.7033C106.526 12.7033 107.202 12.8148 107.853 13.0379C108.504 13.2611 109.071 13.5837 109.554 14.0058C110.042 14.428 110.392 14.9345 110.603 15.5255L108.26 16.3758C108.188 16.1707 108.037 15.9808 107.808 15.8059C107.579 15.631 107.292 15.4893 106.949 15.3808C106.605 15.2722 106.231 15.2179 105.827 15.2179C105.441 15.2119 105.073 15.2692 104.723 15.3898C104.38 15.5104 104.096 15.6762 103.873 15.8873C103.656 16.0984 103.547 16.3396 103.547 16.611C103.547 16.9668 103.65 17.2351 103.855 17.416C104.066 17.5969 104.343 17.7266 104.687 17.805C105.031 17.8834 105.411 17.9527 105.827 18.013C106.683 18.1397 107.473 18.3658 108.197 18.6915C108.92 19.0111 109.499 19.4392 109.934 19.9759C110.374 20.5066 110.594 21.1549 110.594 21.9207C110.594 22.7047 110.374 23.3891 109.934 23.9741C109.493 24.559 108.911 25.0143 108.188 25.34C107.464 25.6656 106.677 25.8284 105.827 25.8284ZM112.618 25.5933V12.9294H120.632V15.426H115.115V17.5608H119.42V20.0573H115.115V23.0967H120.632V25.5933H112.618ZM122.635 25.5933V12.9294H126.833C127.707 12.9294 128.524 13.0952 129.284 13.4269C130.05 13.7525 130.722 14.2078 131.301 14.7928C131.886 15.3717 132.341 16.0441 132.667 16.81C132.999 17.5698 133.164 18.3869 133.164 19.2613C133.164 20.1357 132.999 20.9559 132.667 21.7217C132.341 22.4816 131.886 23.154 131.301 23.7389C130.722 24.3178 130.05 24.7731 129.284 25.1048C128.524 25.4304 127.707 25.5933 126.833 25.5933H122.635ZM125.132 23.0967H126.833C127.351 23.0967 127.84 22.9972 128.298 22.7982C128.762 22.5992 129.172 22.3248 129.528 21.975C129.884 21.6253 130.161 21.2182 130.36 20.7539C130.565 20.2895 130.668 19.792 130.668 19.2613C130.668 18.7307 130.565 18.2362 130.36 17.7778C130.161 17.3135 129.884 16.9065 129.528 16.5567C129.178 16.2009 128.771 15.9235 128.307 15.7245C127.849 15.5255 127.357 15.426 126.833 15.426H125.132V23.0967Z" fill="black"/>
</svg>
