<svg width="148" height="47" viewBox="0 0 148 47" fill="none" xmlns="http://www.w3.org/2000/svg">
<path d="M57.4473 3.96191L59.4282 5.63202V43.5805L57.4473 42.1888V3.96191Z" fill="white"/>
<path d="M53.4854 0.990479L55.9615 2.85191V41.1043L53.4854 39.7082V0.990479Z" fill="white"/>
<path d="M40.1133 6.87135L51.9989 0V38.6281L49.2848 36.9567V20.2426L40.1133 13.3713V6.87135Z" fill="white"/>
<path d="M40.6084 15.8474L47.5417 20.6718V24.2664L40.6084 19.1582V15.8474Z" fill="white"/>
<path d="M40.6084 21.7903L47.0464 26.8787V30.2092L40.6084 25.3059V21.7903Z" fill="white"/>
<path d="M26.2471 21.349L38.1327 14.3618V29.5473L33.3784 33.1807L26.2471 27.6841V21.349Z" fill="white"/>
<path d="M23.0033 28.2283L33.073 35.4467L38.5236 31.3747L60.4184 46.5519H55.4297L38.8932 34.8914L23.0033 46.5519H18.1994L30.3939 37.2975L23.0033 31.3747L4.61914 44.8861H0L23.0033 28.2283Z" fill="white"/>
<rect x="20.7998" y="34.6663" width="1.98093" height="1.98093" fill="white"/>
<rect x="37.6377" y="39.1233" width="1.98093" height="2.47616" fill="white"/>
<rect x="23.2764" y="34.6663" width="1.98093" height="1.98093" fill="white"/>
<rect x="40.1133" y="39.1233" width="1.98093" height="2.47616" fill="white"/>
<rect x="20.7998" y="37.1423" width="1.98093" height="1.4857" fill="white"/>
<rect x="37.6377" y="42.0947" width="1.98093" height="1.98093" fill="white"/>
<rect x="23.2764" y="37.1423" width="1.98093" height="1.4857" fill="white"/>
<rect x="40.1133" y="42.0947" width="1.98093" height="1.98093" fill="white"/>
<path d="M67.5148 30.1865H68.7034V35.7332H67.5148V33.356H65.5497V35.7332H64.3612V30.1865H65.5497V32.1675H67.5148V30.1865ZM72.2292 35.8362C71.8541 35.8362 71.5015 35.7622 71.1714 35.6143C70.8412 35.4637 70.5507 35.2564 70.2997 34.9923C70.0488 34.7282 69.8521 34.4231 69.7094 34.0771C69.5668 33.7285 69.4955 33.356 69.4955 32.9599C69.4955 32.5637 69.5668 32.1926 69.7094 31.8466C69.8521 31.4979 70.0488 31.1915 70.2997 30.9274C70.5507 30.6633 70.8412 30.4573 71.1714 30.3094C71.5015 30.1588 71.8541 30.0835 72.2292 30.0835C72.6069 30.0835 72.9608 30.1588 73.291 30.3094C73.6211 30.4573 73.9116 30.6633 74.1626 30.9274C74.4135 31.1915 74.6089 31.4979 74.7489 31.8466C74.8915 32.1926 74.9629 32.5637 74.9629 32.9599C74.9629 33.356 74.8915 33.7285 74.7489 34.0771C74.6089 34.4231 74.4135 34.7282 74.1626 34.9923C73.9116 35.2564 73.6211 35.4637 73.291 35.6143C72.9608 35.7622 72.6069 35.8362 72.2292 35.8362ZM72.2292 34.6476C72.4405 34.6476 72.6386 34.604 72.8235 34.5169C73.011 34.4271 73.1761 34.3056 73.3187 34.1524C73.4613 33.9965 73.5722 33.8169 73.6515 33.6136C73.7334 33.4102 73.7743 33.1923 73.7743 32.9599C73.7743 32.7274 73.7334 32.5095 73.6515 32.3061C73.5722 32.1028 73.4613 31.9245 73.3187 31.7713C73.1761 31.6155 73.011 31.494 72.8235 31.4068C72.6386 31.317 72.4405 31.2721 72.2292 31.2721C72.0179 31.2721 71.8185 31.317 71.6309 31.4068C71.446 31.494 71.2823 31.6155 71.1397 31.7713C70.997 31.9245 70.8848 32.1028 70.8029 32.3061C70.7237 32.5095 70.684 32.7274 70.684 32.9599C70.684 33.1923 70.7237 33.4102 70.8029 33.6136C70.8848 33.8169 70.997 33.9965 71.1397 34.1524C71.2823 34.3056 71.446 34.4271 71.6309 34.5169C71.8185 34.604 72.0179 34.6476 72.2292 34.6476ZM75.3956 35.7332L76.4732 30.1865H77.4874L78.7315 33.459L79.9755 30.1865H80.9897L82.0673 35.7332H80.855L80.2766 32.738L79.1435 35.7332H78.3194L77.1863 32.738L76.6079 35.7332H75.3956ZM82.855 35.7332V30.1865H86.389V31.3751H84.0436V32.1675H85.8502V33.356H84.0436V34.5446H86.389V35.7332H82.855ZM89.2864 35.8362C88.9747 35.8362 88.6763 35.7873 88.391 35.6896C88.1058 35.5892 87.8562 35.4466 87.6422 35.2617C87.4283 35.0742 87.2738 34.851 87.1787 34.5921L88.2959 34.1801C88.3224 34.2567 88.3805 34.3307 88.4703 34.402C88.5627 34.4733 88.6789 34.5327 88.8189 34.5803C88.9589 34.6252 89.1147 34.6476 89.2864 34.6476C89.4449 34.6476 89.5941 34.6252 89.7341 34.5803C89.8741 34.5327 89.9877 34.468 90.0748 34.3861C90.162 34.3042 90.2056 34.2092 90.2056 34.1009C90.2056 33.9899 90.1593 33.8988 90.0669 33.8275C89.9771 33.7535 89.8609 33.6954 89.7182 33.6532C89.5783 33.6083 89.4343 33.5753 89.2864 33.5541C88.8849 33.496 88.5244 33.4009 88.2048 33.2689C87.8879 33.1342 87.637 32.9493 87.4521 32.7142C87.2698 32.4791 87.1787 32.1807 87.1787 31.8188C87.1787 31.4728 87.2764 31.1704 87.4719 30.9116C87.6673 30.6501 87.9248 30.4467 88.2444 30.3014C88.5667 30.1562 88.914 30.0835 89.2864 30.0835C89.5981 30.0835 89.8965 30.1337 90.1818 30.2341C90.4697 30.3318 90.7206 30.4744 90.9345 30.662C91.1485 30.8495 91.3017 31.074 91.3941 31.3355L90.2769 31.7396C90.2505 31.663 90.191 31.5904 90.0986 31.5217C90.0088 31.4504 89.8939 31.3923 89.7539 31.3474C89.6139 31.3025 89.4581 31.28 89.2864 31.28C89.1332 31.2774 88.9866 31.2998 88.8466 31.3474C88.7067 31.3949 88.5918 31.4596 88.502 31.5415C88.4122 31.6234 88.3673 31.7158 88.3673 31.8188C88.3673 31.9615 88.4095 32.0684 88.494 32.1397C88.5786 32.2084 88.6895 32.2573 88.8268 32.2863C88.9668 32.3154 89.12 32.3418 89.2864 32.3656C89.6667 32.421 90.0167 32.5201 90.3363 32.6627C90.6559 32.8053 90.9121 32.9955 91.1049 33.2332C91.2977 33.4709 91.3941 33.7601 91.3941 34.1009C91.3941 34.4469 91.2964 34.7506 91.1009 35.0121C90.9081 35.2709 90.6519 35.473 90.3323 35.6183C90.0127 35.7635 89.6641 35.8362 89.2864 35.8362ZM95.7686 35.8362C95.4384 35.8362 95.14 35.7556 94.8732 35.5945C94.6091 35.4307 94.3991 35.2155 94.2432 34.9487C94.0874 34.6819 94.0095 34.3914 94.0095 34.0771C94.0095 33.9107 94.024 33.7641 94.0531 33.6373C94.0848 33.5079 94.135 33.3851 94.2036 33.2689C94.2749 33.15 94.3687 33.0246 94.4849 32.8925C94.6038 32.7604 94.7517 32.6059 94.9287 32.429C94.8388 32.3365 94.7609 32.2507 94.6949 32.1714C94.6315 32.0896 94.5787 32.0077 94.5364 31.9258C94.4968 31.8413 94.4678 31.7541 94.4493 31.6643C94.4308 31.5719 94.4215 31.4702 94.4215 31.3593C94.4215 31.0978 94.4836 30.8653 94.6077 30.662C94.7319 30.4586 94.8956 30.2988 95.099 30.1826C95.305 30.0637 95.5282 30.0043 95.7686 30.0043C96.0168 30.0043 96.2427 30.0651 96.446 30.1865C96.6521 30.3054 96.8158 30.4678 96.9373 30.6739C97.0615 30.8772 97.1235 31.1057 97.1235 31.3593C97.1235 31.4728 97.113 31.5758 97.0918 31.6683C97.0733 31.7607 97.043 31.8479 97.0007 31.9298C96.9584 32.0116 96.9043 32.0935 96.8383 32.1754C96.7749 32.2546 96.6983 32.3392 96.6085 32.429L97.4167 33.2372L98.4864 32.1675V33.8473L98.2566 34.0771L99.0728 34.8932L98.2328 35.7332L97.4167 34.917C97.2371 35.0966 97.0799 35.2458 96.9452 35.3647C96.8105 35.4836 96.6838 35.5773 96.5649 35.646C96.4487 35.7147 96.3272 35.7635 96.2004 35.7926C96.0763 35.8216 95.9323 35.8362 95.7686 35.8362ZM95.7686 34.6476C95.8399 34.6476 95.9019 34.6384 95.9548 34.6199C96.0102 34.5987 96.0657 34.5657 96.1212 34.5208C96.1766 34.4759 96.24 34.4178 96.3113 34.3465C96.3827 34.2725 96.4711 34.1827 96.5768 34.0771L95.7686 33.2689C95.6576 33.3798 95.5652 33.4723 95.4912 33.5462C95.4173 33.6175 95.3592 33.6796 95.3169 33.7324C95.2747 33.7852 95.2443 33.8381 95.2258 33.8909C95.2073 33.9437 95.1981 34.0058 95.1981 34.0771C95.1981 34.1907 95.2258 34.291 95.2813 34.3782C95.3367 34.4627 95.408 34.5287 95.4952 34.5763C95.5824 34.6238 95.6735 34.6476 95.7686 34.6476ZM95.7686 31.7713C95.8557 31.6868 95.9218 31.6234 95.9667 31.5811C96.0142 31.5389 96.0459 31.5019 96.0617 31.4702C96.0776 31.4359 96.0855 31.391 96.0855 31.3355C96.0855 31.2272 96.0499 31.148 95.9785 31.0978C95.9072 31.045 95.8372 31.0185 95.7686 31.0185C95.6893 31.0185 95.6167 31.0489 95.5507 31.1097C95.4846 31.1678 95.4516 31.243 95.4516 31.3355C95.4516 31.391 95.4622 31.4372 95.4833 31.4742C95.5044 31.5111 95.5375 31.5521 95.5824 31.597C95.6299 31.6392 95.692 31.6973 95.7686 31.7713ZM101.767 35.7332V30.1865H103.859C104.162 30.1865 104.437 30.2645 104.683 30.4203C104.931 30.5735 105.128 30.7795 105.273 31.0383C105.418 31.2945 105.491 31.5758 105.491 31.8822C105.491 32.1939 105.416 32.4778 105.265 32.734C105.117 32.9902 104.919 33.1949 104.671 33.3481C104.422 33.5013 104.152 33.5779 103.859 33.5779H102.955V35.7332H101.767ZM102.955 32.3893H103.724C103.83 32.3893 103.926 32.3629 104.013 32.3101C104.1 32.2546 104.17 32.182 104.223 32.0922C104.276 32.0024 104.302 31.9034 104.302 31.7951C104.302 31.6868 104.276 31.5877 104.223 31.4979C104.17 31.4081 104.1 31.3368 104.013 31.284C103.926 31.2285 103.83 31.2008 103.724 31.2008H102.955V32.3893ZM106.17 35.7332V30.1865H108.428C108.732 30.1865 109.006 30.2631 109.252 30.4163C109.498 30.5695 109.692 30.7755 109.834 31.0344C109.98 31.2906 110.052 31.5732 110.052 31.8822C110.052 32.1199 110.013 32.3418 109.933 32.5478C109.854 32.7512 109.741 32.9321 109.593 33.0906C109.447 33.2464 109.276 33.3719 109.078 33.467L110.393 35.7332H109.022L107.77 33.5779H107.358V35.7332H106.17ZM107.358 32.3893H108.285C108.391 32.3893 108.487 32.3629 108.574 32.3101C108.662 32.2546 108.732 32.182 108.784 32.0922C108.837 32.0024 108.864 31.9034 108.864 31.7951C108.864 31.6868 108.837 31.5877 108.784 31.4979C108.732 31.4081 108.662 31.3368 108.574 31.284C108.487 31.2285 108.391 31.2008 108.285 31.2008H107.358V32.3893ZM113.442 35.8362C113.067 35.8362 112.714 35.7622 112.384 35.6143C112.054 35.4637 111.763 35.2564 111.512 34.9923C111.261 34.7282 111.065 34.4231 110.922 34.0771C110.779 33.7285 110.708 33.356 110.708 32.9599C110.708 32.5637 110.779 32.1926 110.922 31.8466C111.065 31.4979 111.261 31.1915 111.512 30.9274C111.763 30.6633 112.054 30.4573 112.384 30.3094C112.714 30.1588 113.067 30.0835 113.442 30.0835C113.82 30.0835 114.173 30.1588 114.504 30.3094C114.834 30.4573 115.124 30.6633 115.375 30.9274C115.626 31.1915 115.822 31.4979 115.962 31.8466C116.104 32.1926 116.175 32.5637 116.175 32.9599C116.175 33.356 116.104 33.7285 115.962 34.0771C115.822 34.4231 115.626 34.7282 115.375 34.9923C115.124 35.2564 114.834 35.4637 114.504 35.6143C114.173 35.7622 113.82 35.8362 113.442 35.8362ZM113.442 34.6476C113.653 34.6476 113.851 34.604 114.036 34.5169C114.224 34.4271 114.389 34.3056 114.531 34.1524C114.674 33.9965 114.785 33.8169 114.864 33.6136C114.946 33.4102 114.987 33.1923 114.987 32.9599C114.987 32.7274 114.946 32.5095 114.864 32.3061C114.785 32.1028 114.674 31.9245 114.531 31.7713C114.389 31.6155 114.224 31.494 114.036 31.4068C113.851 31.317 113.653 31.2721 113.442 31.2721C113.231 31.2721 113.031 31.317 112.844 31.4068C112.659 31.494 112.495 31.6155 112.352 31.7713C112.21 31.9245 112.097 32.1028 112.016 32.3061C111.936 32.5095 111.897 32.7274 111.897 32.9599C111.897 33.1923 111.936 33.4102 112.016 33.6136C112.097 33.8169 112.21 33.9965 112.352 34.1524C112.495 34.3056 112.659 34.4271 112.844 34.5169C113.031 34.604 113.231 34.6476 113.442 34.6476ZM116.848 35.7332V30.1865H118.94C119.244 30.1865 119.518 30.2645 119.764 30.4203C120.012 30.5735 120.209 30.7795 120.354 31.0383C120.5 31.2945 120.572 31.5758 120.572 31.8822C120.572 32.1939 120.497 32.4778 120.346 32.734C120.198 32.9902 120 33.1949 119.752 33.3481C119.504 33.5013 119.233 33.5779 118.94 33.5779H118.037V35.7332H116.848ZM118.037 32.3893H118.805C118.911 32.3893 119.007 32.3629 119.094 32.3101C119.182 32.2546 119.252 32.182 119.304 32.0922C119.357 32.0024 119.384 31.9034 119.384 31.7951C119.384 31.6868 119.357 31.5877 119.304 31.4979C119.252 31.4081 119.182 31.3368 119.094 31.284C119.007 31.2285 118.911 31.2008 118.805 31.2008H118.037V32.3893ZM121.251 35.7332V30.1865H124.785V31.3751H122.44V32.1675H124.246V33.356H122.44V34.5446H124.785V35.7332H121.251ZM125.654 35.7332V30.1865H127.912C128.216 30.1865 128.491 30.2631 128.736 30.4163C128.982 30.5695 129.176 30.7755 129.319 31.0344C129.464 31.2906 129.537 31.5732 129.537 31.8822C129.537 32.1199 129.497 32.3418 129.418 32.5478C129.338 32.7512 129.225 32.9321 129.077 33.0906C128.932 33.2464 128.76 33.3719 128.562 33.467L129.877 35.7332H128.506L127.255 33.5779H126.842V35.7332H125.654ZM126.842 32.3893H127.77C127.875 32.3893 127.972 32.3629 128.059 32.3101C128.146 32.2546 128.216 32.182 128.269 32.0922C128.322 32.0024 128.348 31.9034 128.348 31.7951C128.348 31.6868 128.322 31.5877 128.269 31.4979C128.216 31.4081 128.146 31.3368 128.059 31.284C127.972 31.2285 127.875 31.2008 127.77 31.2008H126.842V32.3893ZM134.636 30.1865V31.3751H133.051V35.7332H131.862V31.3751H130.278V30.1865H134.636ZM135.546 35.7332V30.1865H136.734V35.7332H135.546ZM137.803 35.7332V30.1865H141.337V31.3751H138.991V32.1675H140.798V33.356H138.991V34.5446H141.337V35.7332H137.803ZM144.234 35.8362C143.922 35.8362 143.624 35.7873 143.339 35.6896C143.053 35.5892 142.804 35.4466 142.59 35.2617C142.376 35.0742 142.221 34.851 142.126 34.5921L143.244 34.1801C143.27 34.2567 143.328 34.3307 143.418 34.402C143.51 34.4733 143.627 34.5327 143.767 34.5803C143.906 34.6252 144.062 34.6476 144.234 34.6476C144.392 34.6476 144.542 34.6252 144.682 34.5803C144.822 34.5327 144.935 34.468 145.022 34.3861C145.11 34.3042 145.153 34.2092 145.153 34.1009C145.153 33.9899 145.107 33.8988 145.014 33.8275C144.925 33.7535 144.808 33.6954 144.666 33.6532C144.526 33.6083 144.382 33.5753 144.234 33.5541C143.833 33.496 143.472 33.4009 143.152 33.2689C142.835 33.1342 142.585 32.9493 142.4 32.7142C142.217 32.4791 142.126 32.1807 142.126 31.8188C142.126 31.4728 142.224 31.1704 142.419 30.9116C142.615 30.6501 142.872 30.4467 143.192 30.3014C143.514 30.1562 143.862 30.0835 144.234 30.0835C144.546 30.0835 144.844 30.1337 145.129 30.2341C145.417 30.3318 145.668 30.4744 145.882 30.662C146.096 30.8495 146.249 31.074 146.342 31.3355L145.224 31.7396C145.198 31.663 145.139 31.5904 145.046 31.5217C144.956 31.4504 144.841 31.3923 144.702 31.3474C144.562 31.3025 144.406 31.28 144.234 31.28C144.081 31.2774 143.934 31.2998 143.794 31.3474C143.654 31.3949 143.539 31.4596 143.45 31.5415C143.36 31.6234 143.315 31.7158 143.315 31.8188C143.315 31.9615 143.357 32.0684 143.442 32.1397C143.526 32.2084 143.637 32.2573 143.774 32.2863C143.914 32.3154 144.068 32.3418 144.234 32.3656C144.614 32.421 144.964 32.5201 145.284 32.6627C145.603 32.8053 145.86 32.9955 146.053 33.2332C146.245 33.4709 146.342 33.7601 146.342 34.1009C146.342 34.4469 146.244 34.7506 146.049 35.0121C145.856 35.2709 145.6 35.473 145.28 35.6183C144.96 35.7635 144.612 35.8362 144.234 35.8362Z" fill="white"/>
<path d="M65.5694 28.4094V14.5429H70.7297C71.4759 14.5429 72.1527 14.6981 72.7602 15.0084C73.3677 15.3122 73.8464 15.748 74.1964 16.3158C74.5529 16.8837 74.7312 17.5506 74.7312 18.3166C74.7312 18.6269 74.6883 18.9472 74.6025 19.2773C74.5232 19.6075 74.3846 19.9112 74.1865 20.1886C73.995 20.4659 73.7309 20.6772 73.3941 20.8225C73.8299 20.9281 74.1799 21.1262 74.444 21.4167C74.7081 21.7007 74.9095 22.0308 75.0482 22.4072C75.1868 22.777 75.2793 23.1567 75.3255 23.5462C75.3717 23.9358 75.3948 24.2891 75.3948 24.606C75.3948 25.3192 75.2099 25.963 74.8402 26.5374C74.4704 27.1119 73.9719 27.5675 73.3446 27.9043C72.7239 28.241 72.0372 28.4094 71.2844 28.4094H65.5694ZM68.3031 26.0818H70.9972C71.3603 26.0818 71.6905 25.996 71.9876 25.8243C72.2848 25.646 72.5225 25.405 72.7008 25.1013C72.8791 24.7909 72.9682 24.441 72.9682 24.0514C72.9682 23.7212 72.8791 23.4076 72.7008 23.1104C72.5225 22.8133 72.2848 22.5723 71.9876 22.3874C71.6905 22.1959 71.3603 22.1002 70.9972 22.1002H68.3031V26.0818ZM68.3031 19.8221H70.4128C70.8486 19.8221 71.2217 19.6801 71.532 19.3962C71.8424 19.1123 71.9975 18.7458 71.9975 18.2968C71.9975 17.8346 71.8424 17.4846 71.532 17.2469C71.2217 17.0026 70.8486 16.8804 70.4128 16.8804H68.3031V19.8221ZM76.9249 28.4094V14.5429H79.6586V25.6757H85.2449V28.4094H76.9249ZM87.4293 28.4094V14.5429H96.2048V17.2766H90.163V19.6141H94.8776V22.3478H90.163V25.6757H96.2048V28.4094H87.4293ZM103.42 28.6669C102.641 28.6669 101.895 28.5448 101.182 28.3005C100.475 28.0562 99.8544 27.7029 99.3195 27.2407C98.7913 26.7785 98.4116 26.2304 98.1805 25.5965L100.746 24.6457C100.825 24.8702 100.99 25.0815 101.241 25.2796C101.492 25.471 101.806 25.6295 102.182 25.755C102.558 25.8738 102.971 25.9333 103.42 25.9333C103.849 25.9333 104.252 25.8705 104.628 25.7451C105.011 25.613 105.318 25.4314 105.55 25.2003C105.787 24.9692 105.906 24.6985 105.906 24.3881C105.906 24.0778 105.784 23.8203 105.54 23.6156C105.295 23.4109 104.982 23.2491 104.599 23.1302C104.216 23.0048 103.823 22.909 103.42 22.843C102.423 22.6977 101.528 22.4633 100.736 22.1398C99.9501 21.8096 99.3294 21.3573 98.8738 20.7828C98.4182 20.2018 98.1904 19.4655 98.1904 18.5741C98.1904 17.7157 98.4314 16.9662 98.9134 16.3257C99.4021 15.6852 100.043 15.1867 100.835 14.8301C101.634 14.4736 102.496 14.2953 103.42 14.2953C104.186 14.2953 104.926 14.4175 105.639 14.6618C106.352 14.9061 106.973 15.2593 107.501 15.7216C108.036 16.1838 108.419 16.7384 108.65 17.3855L106.084 18.3166C106.005 18.0921 105.84 17.8841 105.589 17.6926C105.338 17.5011 105.025 17.3459 104.648 17.2271C104.272 17.1082 103.862 17.0488 103.42 17.0488C102.997 17.0422 102.595 17.1049 102.212 17.237C101.835 17.369 101.525 17.5506 101.281 17.7817C101.043 18.0128 100.924 18.277 100.924 18.5741C100.924 18.9637 101.036 19.2575 101.261 19.4556C101.492 19.6537 101.796 19.7957 102.172 19.8815C102.548 19.9674 102.964 20.0433 103.42 20.1093C104.358 20.248 105.223 20.4956 106.015 20.8522C106.807 21.2021 107.441 21.671 107.917 22.2586C108.399 22.8397 108.64 23.5495 108.64 24.3881C108.64 25.2465 108.399 25.996 107.917 26.6365C107.435 27.277 106.798 27.7755 106.005 28.1321C105.213 28.4887 104.351 28.6669 103.42 28.6669ZM115.878 28.6669C115.099 28.6669 114.353 28.5448 113.64 28.3005C112.933 28.0562 112.313 27.7029 111.778 27.2407C111.249 26.7785 110.87 26.2304 110.639 25.5965L113.204 24.6457C113.283 24.8702 113.448 25.0815 113.699 25.2796C113.95 25.471 114.264 25.6295 114.64 25.755C115.017 25.8738 115.429 25.9333 115.878 25.9333C116.307 25.9333 116.71 25.8705 117.087 25.7451C117.47 25.613 117.777 25.4314 118.008 25.2003C118.245 24.9692 118.364 24.6985 118.364 24.3881C118.364 24.0778 118.242 23.8203 117.998 23.6156C117.754 23.4109 117.44 23.2491 117.057 23.1302C116.674 23.0048 116.281 22.909 115.878 22.843C114.881 22.6977 113.986 22.4633 113.194 22.1398C112.408 21.8096 111.788 21.3573 111.332 20.7828C110.876 20.2018 110.649 19.4655 110.649 18.5741C110.649 17.7157 110.89 16.9662 111.372 16.3257C111.86 15.6852 112.501 15.1867 113.293 14.8301C114.092 14.4736 114.954 14.2953 115.878 14.2953C116.644 14.2953 117.384 14.4175 118.097 14.6618C118.81 14.9061 119.431 15.2593 119.959 15.7216C120.494 16.1838 120.877 16.7384 121.108 17.3855L118.543 18.3166C118.463 18.0921 118.298 17.8841 118.047 17.6926C117.796 17.5011 117.483 17.3459 117.106 17.2271C116.73 17.1082 116.321 17.0488 115.878 17.0488C115.456 17.0422 115.053 17.1049 114.67 17.237C114.293 17.369 113.983 17.5506 113.739 17.7817C113.501 18.0128 113.382 18.277 113.382 18.5741C113.382 18.9637 113.495 19.2575 113.719 19.4556C113.95 19.6537 114.254 19.7957 114.63 19.8815C115.007 19.9674 115.423 20.0433 115.878 20.1093C116.816 20.248 117.681 20.4956 118.473 20.8522C119.266 21.2021 119.9 21.671 120.375 22.2586C120.857 22.8397 121.098 23.5495 121.098 24.3881C121.098 25.2465 120.857 25.996 120.375 26.6365C119.893 27.277 119.256 27.7755 118.463 28.1321C117.671 28.4887 116.809 28.6669 115.878 28.6669ZM123.314 28.4094V14.5429H132.09V17.2766H126.048V19.6141H130.763V22.3478H126.048V25.6757H132.09V28.4094H123.314ZM134.283 28.4094V14.5429H138.879C139.836 14.5429 140.731 14.7245 141.563 15.0877C142.401 15.4442 143.138 15.9428 143.772 16.5833C144.412 17.2172 144.911 17.9534 145.267 18.792C145.63 19.624 145.812 20.5187 145.812 21.4762C145.812 22.4336 145.63 23.3316 145.267 24.1702C144.911 25.0022 144.412 25.7385 143.772 26.379C143.138 27.0129 142.401 27.5114 141.563 27.8746C140.731 28.2311 139.836 28.4094 138.879 28.4094H134.283ZM137.017 25.6757H138.879C139.447 25.6757 139.981 25.5668 140.483 25.3489C140.992 25.131 141.441 24.8305 141.83 24.4476C142.22 24.0646 142.524 23.6189 142.742 23.1104C142.966 22.602 143.078 22.0572 143.078 21.4762C143.078 20.8951 142.966 20.3536 142.742 19.8518C142.524 19.3434 142.22 18.8977 141.83 18.5147C141.447 18.1251 141.002 17.8214 140.493 17.6034C139.991 17.3855 139.453 17.2766 138.879 17.2766H137.017V25.6757Z" fill="white"/>
</svg>
