<svg width="18" height="16" viewBox="0 0 18 16" fill="none" xmlns="http://www.w3.org/2000/svg">
<path d="M13.167 3.83333H14.0003V4.66667C14.0003 4.88768 14.0881 5.09964 14.2444 5.25592C14.4007 5.4122 14.6126 5.5 14.8337 5.5C15.0547 5.5 15.2666 5.4122 15.4229 5.25592C15.5792 5.09964 15.667 4.88768 15.667 4.66667V3.83333H16.5003C16.7213 3.83333 16.9333 3.74554 17.0896 3.58926C17.2459 3.43298 17.3337 3.22101 17.3337 3C17.3337 2.77899 17.2459 2.56702 17.0896 2.41074C16.9333 2.25446 16.7213 2.16667 16.5003 2.16667H15.667V1.33333C15.667 1.11232 15.5792 0.900358 15.4229 0.744078C15.2666 0.587797 15.0547 0.5 14.8337 0.5C14.6126 0.5 14.4007 0.587797 14.2444 0.744078C14.0881 0.900358 14.0003 1.11232 14.0003 1.33333V2.16667H13.167C12.946 2.16667 12.734 2.25446 12.5777 2.41074C12.4215 2.56702 12.3337 2.77899 12.3337 3C12.3337 3.22101 12.4215 3.43298 12.5777 3.58926C12.734 3.74554 12.946 3.83333 13.167 3.83333ZM16.5003 7.16667C16.2793 7.16667 16.0673 7.25446 15.9111 7.41074C15.7548 7.56702 15.667 7.77899 15.667 8V13C15.667 13.221 15.5792 13.433 15.4229 13.5893C15.2666 13.7455 15.0547 13.8333 14.8337 13.8333H3.16699C2.94598 13.8333 2.73402 13.7455 2.57774 13.5893C2.42146 13.433 2.33366 13.221 2.33366 13V5.00833L7.23366 9.91667C7.70241 10.3848 8.33782 10.6478 9.00032 10.6478C9.66283 10.6478 10.2982 10.3848 10.767 9.91667L12.8253 7.85833C12.9822 7.70141 13.0704 7.48858 13.0704 7.26667C13.0704 7.04475 12.9822 6.83192 12.8253 6.675C12.6684 6.51808 12.4556 6.42992 12.2337 6.42992C12.0117 6.42992 11.7989 6.51808 11.642 6.675L9.58366 8.73333C9.42788 8.88602 9.21845 8.97155 9.00032 8.97155C8.7822 8.97155 8.57277 8.88602 8.41699 8.73333L3.50866 3.83333H9.83366C10.0547 3.83333 10.2666 3.74554 10.4229 3.58926C10.5792 3.43298 10.667 3.22101 10.667 3C10.667 2.77899 10.5792 2.56702 10.4229 2.41074C10.2666 2.25446 10.0547 2.16667 9.83366 2.16667H3.16699C2.50395 2.16667 1.86807 2.43006 1.39923 2.8989C0.930384 3.36774 0.666992 4.00363 0.666992 4.66667V13C0.666992 13.663 0.930384 14.2989 1.39923 14.7678C1.86807 15.2366 2.50395 15.5 3.16699 15.5H14.8337C15.4967 15.5 16.1326 15.2366 16.6014 14.7678C17.0703 14.2989 17.3337 13.663 17.3337 13V8C17.3337 7.77899 17.2459 7.56702 17.0896 7.41074C16.9333 7.25446 16.7213 7.16667 16.5003 7.16667Z" fill="#999999"/>
</svg>
